<svg id="Layer_1" data-name="Layer 1" xmlns="http://www.w3.org/2000/svg" xmlns:xlink="http://www.w3.org/1999/xlink" viewBox="0 0 150 150"><defs><style>.cls-1{fill:none;}.cls-2{fill:#80f1bd;}.cls-3{fill:url(#linear-gradient);}</style><linearGradient id="linear-gradient" x1="19.69" y1="18.66" x2="131.24" y2="130.21" gradientTransform="matrix(1, 0, 0, -1, 0, 149.89)" gradientUnits="userSpaceOnUse"><stop offset="0" stop-color="#00e26c"/><stop offset="0.22" stop-color="#01e370"/><stop offset="0.46" stop-color="#02e57d"/><stop offset="0.7" stop-color="#05e993"/><stop offset="0.95" stop-color="#08efb0"/><stop offset="1" stop-color="#09f0b8"/></linearGradient></defs><g id="Layer_2" data-name="Layer 2"><path class="cls-1" d="M0,0H150V150H0Z" transform="translate(0 0)"/></g><path class="cls-2" d="M35.51,13.43h0A22.41,22.41,0,0,1,57.92,35.85v79.5a22.41,22.41,0,0,1-22.41,22.41h0a22.42,22.42,0,0,1-22.42-22.41V35.85A22.42,22.42,0,0,1,35.51,13.43Z" transform="translate(0 0)"/><path class="cls-2" d="M115.64,13.43h0a22.41,22.41,0,0,1,22.41,22.42v79.5a22.41,22.41,0,0,1-22.41,22.41h0a22.42,22.42,0,0,1-22.42-22.41V35.85A22.42,22.42,0,0,1,115.64,13.43Z" transform="translate(0 0)"/><path class="cls-3" d="M131.48,131.19h0a22.39,22.39,0,0,1-31.66,0l0,0L19.74,51.06a22.38,22.38,0,0,1,0-31.62h0a22.38,22.38,0,0,1,31.65,0l0,0,80.07,80.07a22.37,22.37,0,0,1,0,31.65Zm6.64-95.34h0A22.42,22.42,0,0,0,115.7,13.43h-.06A22.42,22.42,0,0,0,93.22,35.85h0a22.41,22.41,0,0,0,22.42,22.41h0a22.41,22.41,0,0,0,22.41-22.41h.07Zm-80.2,79.5h0A22.41,22.41,0,0,0,35.51,92.93h0a22.42,22.42,0,0,0-22.42,22.42h0a22.42,22.42,0,0,0,22.42,22.41h0A22.41,22.41,0,0,0,57.92,115.35Z" transform="translate(0 0)"/></svg>